#!OML:ASF X:\für Bonn\!DataBase\2005_08_10_Bjorn_Final\c3d\bjorn.ASF
:FULLY-SPECIFIED
:DEGREES
233
root -0.731965 21.1715 8.12396 -174.332 49.1778 184.7
lowerback -8.1769 8.66623 5.72312
upperback 0.372622 11.0475 -0.865985
thorax 6.17786 5.63023 -2.45914
lowerneck -2.9605 4.19449 10.3517
upperneck 8.94447 5.9677 -8.5435
head 3.70471 3.02264 -4.03248
rclavicle 8.16454e-014 1.59028e-015
rhumerus 67.9028 21.3816 -79.7723
rradius 65.694
rwrist 36.6516
rhand -62.8283 26.9406
rfingers 7.12502
rthumb -34.84 0.347356
lclavicle 8.16454e-014 1.59028e-015
lhumerus 47.0695 -16.8887 84.3181
lradius 77.8242
lwrist 60.751
lhand -50.6727 -4.18459
lfingers 7.12502
lthumb -23.2347 24.4337
rfemur 541.104 -179.706 -534.218
rtibia 30.9578
rfoot 17.2507 10.019
rtoes -31.4269
lfemur 346.636 0.956213 353.317
ltibia 26.506
lfoot 17.772 4.57203
ltoes -31.5278
234
root -0.691646 21.3395 8.06163 -174.337 49.4125 184.582
lowerback -8.54302 8.71494 5.32841
upperback 0.157157 11.1474 -1.10964
thorax 6.13685 5.66694 -2.44961
lowerneck -2.4403 4.07327 10.3637
upperneck 9.36398 5.84471 -7.94338
head 3.71628 3.01034 -3.86379
rclavicle -8.26509e-014 -1.51076e-014
rhumerus 68.9213 20.7348 -80.041
rradius 63.0569
rwrist 36.0626
rhand -62.6928 27.5177
rfingers 7.12502
rthumb -34.7115 0.894782
lclavicle -8.26509e-014 -1.51076e-014
lhumerus 47.8589 -16.3334 85.1538
lradius 75.557
lwrist 60.6944
lhand -50.4724 -3.90922
lfingers 7.12502
lthumb -23.0425 24.7332
rfemur 540.78 -179.435 -534.134
rtibia 31.2557
rfoot 16.6873 8.97494
rtoes -29.4594
lfemur 346.868 0.727058 353.35
ltibia 26.0827
lfoot 18.5083 5.45016
ltoes -31.11
235
root -0.653517 21.4985 8.00104 -174.423 49.6087 184.45
lowerback -8.8092 8.75315 4.9544
upperback -0.0392547 11.2401 -1.35592
thorax 6.06374 5.7024 -2.46792
lowerneck -2.04792 3.9253 10.4845
upperneck 9.9774 5.70346 -7.50868
head 3.81434 2.99061 -3.76166
rclavicle -1.80894e-014 5.56597e-015
rhumerus 69.9562 20.0967 -80.2597
rradius 60.4576
rwrist 35.4893
rhand -62.6212 28.0944
rfingers 7.12502
rthumb -34.6435 1.45586
lclavicle -1.80894e-014 5.56597e-015
lhumerus 48.5443 -15.8145 86.0541
lradius 73.4035
lwrist 60.828
lhand -50.2003 -3.94154
lfingers 7.12502
lthumb -22.7813 24.7333
rfemur 540.624 -179.256 -534.024
rtibia 31.4314
rfoot 16.1596 8.09775
rtoes -27.2891
lfemur 347.048 0.489342 353.37
ltibia 25.9281
lfoot 18.9091 6.17958
ltoes -30.5536
236
root -0.618223 21.6472 7.9407 -174.611 49.7683 184.295
lowerback -8.98782 8.78209 4.59172
upperback -0.174087 11.3234 -1.57851
thorax 6.00342 5.73525 -2.47707
lowerneck -1.8589 3.76181 10.7935
upperneck 10.7536 5.56239 -7.42821
head 4.01003 2.96634 -3.79584
rclavicle -1.41808e-013 -3.18055e-014
rhumerus 71.047 19.4363 -80.3189
rradius 57.9831
rwrist 34.8733
rhand -62.3405 27.8136
rfingers 7.12502
rthumb -34.377 1.11428
lclavicle -1.41808e-013 -3.18055e-014
lhumerus 49.178 -15.3377 87.0296
lradius 71.3646
lwrist 60.9793
lhand -49.8207 -4.31302
lfingers 7.12502
lthumb -22.417 24.4062
rfemur 540.584 -179.033 -533.95
rtibia 31.583
rfoot 15.7638 7.58045
rtoes -25.059
lfemur 347.246 0.291656 353.361
ltibia 25.9088
lfoot 19.156 6.66211
ltoes -29.8709
237
root -0.585388 21.7862 7.8809 -174.895 49.8907 184.127
lowerback -9.06947 8.79193 4.25155
upperback -0.261065 11.383 -1.78363
thorax 5.93834 5.75823 -2.49474
lowerneck -1.58018 3.60226 10.9444
upperneck 11.321 5.41659 -7.22827
head 4.12039 2.93861 -3.76976
rclavicle -1.07592e-013 -1.27222e-014
rhumerus 72.0955 18.7782 -80.247
rradius 55.7515
rwrist 34.2768
rhand -62.0316 27.1025
rfingers 7.12502
rthumb -34.0837 0.337338
lclavicle -1.07592e-013 -1.27222e-014
lhumerus 49.755 -14.9001 87.9375
lradius 69.4974
lwrist 61.1023
lhand -49.8825 -4.37962
lfingers 7.12502
lthumb -22.4763 24.3324
rfemur 540.671 -178.94 -533.85
rtibia 31.7255
rfoot 15.4332 7.35573
rtoes -23.1285
lfemur 347.517 0.15757 353.327
ltibia 25.9662
lfoot 19.2948 6.88994
ltoes -29.2502
238
root -0.555741 21.8978 7.82292 -175.214 50.0156 184.024
lowerback -9.06619 8.81428 3.98659
upperback -0.299065 11.4532 -1.96583
thorax 5.88879 5.78931 -2.53459
lowerneck -1.26768 3.45336 10.9746
upperneck 11.7131 5.26831 -6.927
head 4.16694 2.90625 -3.6932
rclavicle 1.53139e-013 3.33958e-014
rhumerus 73.0295 18.1039 -80.1351
rradius 53.759
rwrist 33.9046
rhand -61.883 26.3929
rfingers 7.12502
rthumb -33.9426 -0.40364
lclavicle 1.53139e-013 3.33958e-014
lhumerus 50.2891 -14.5175 88.7801
lradius 67.8845
lwrist 61.2675
lhand -50.5989 -3.72942
lfingers 7.12502
lthumb -23.1638 24.8978
rfemur 540.826 -178.958 -533.713
rtibia 31.8933
rfoot 15.1901 7.37802
rtoes -21.6533
lfemur 347.888 0.244745 353.323
ltibia 26.0593
lfoot 19.3895 6.92743
ltoes -28.2666
239
root -0.52664 21.9994 7.76481 -175.591 50.1777 183.891
lowerback -9.04425 8.84069 3.70984
upperback -0.288835 11.529 -2.12245
thorax 5.8726 5.82308 -2.53985
lowerneck -0.754308 3.3114 10.9784
upperneck 11.7765 5.13272 -6.67423
head 4.08252 2.87214 -3.63086
rclavicle -1.56816e-013 -2.54444e-014
rhumerus 73.8433 17.5231 -80.1134
rradius 51.9429
rwrist 33.7471
rhand -61.6634 25.614
rfingers 7.12502
rthumb -33.7339 -1.22845
lclavicle -1.56816e-013 -2.54444e-014
lhumerus 50.7436 -14.1136 89.5722
lradius 66.5639
lwrist 61.4505
lhand -51.4142 -2.96054
lfingers 7.12502
lthumb -23.9458 25.5662
rfemur 541.013 -179.115 -533.59
rtibia 32.0526
rfoot 14.9826 7.5719
rtoes -20.8309
lfemur 348.332 0.373779 353.298
ltibia 26.1881
lfoot 19.3708 6.938
ltoes -27.0606
240
root -0.49843 22.0904 7.70844 -176.06 50.3212 183.688
lowerback -8.95436 8.85426 3.3839
upperback -0.25698 11.5939 -2.26281
thorax 5.82708 5.85049 -2.51402
lowerneck -0.205782 3.17626 10.8933
upperneck 11.7278 5.00366 -6.40839
head 3.95697 2.83452 -3.5502
rclavicle -9.53421e-014 4.45278e-014
rhumerus 74.5521 17.0529 -80.2972
rradius 50.2463
rwrist 33.8428
rhand -61.2359 24.4591
rfingers 7.12502
rthumb -33.3277 -2.47138
lclavicle -9.53421e-014 4.45278e-014
lhumerus 51.0412 -13.6927 90.4722
lradius 65.4212
lwrist 61.7741
lhand -51.6732 -2.88005
lfingers 7.12502
lthumb -24.1942 25.6139
rfemur 541.233 -179.31 -533.512
rtibia 32.2167
rfoot 14.8206 7.88865
rtoes -20.4194
lfemur 348.813 0.535151 353.22
ltibia 26.3154
lfoot 19.1496 7.1741
ltoes -25.2995
241
root -0.471831 22.1727 7.65033 -176.544 50.4232 183.46
lowerback -8.85603 8.86256 3.07043
upperback -0.215713 11.6506 -2.4002
thorax 5.78766 5.8745 -2.49366
lowerneck 0.315344 3.04542 10.7913
upperneck 11.6791 4.8808 -6.17075
head 3.83736 2.79665 -3.47453
rclavicle 1.25458e-013 1.59028e-014
rhumerus 75.2507 16.6493 -80.5543
rradius 48.6197
rwrist 34.0968
rhand -60.7077 23.0946
rfingers 7.12502
rthumb -32.8253 -3.94233
lclavicle 1.25458e-013 1.59028e-014
lhumerus 51.2234 -13.2894 91.3756
lradius 64.4357
lwrist 62.357
lhand -51.7779 -3.32532
lfingers 7.12502
lthumb -24.2946 25.1552
rfemur 541.467 -179.434 -533.488
rtibia 32.3269
rfoot 14.7277 8.31286
rtoes -20.4467
lfemur 349.263 0.497796 353.106
ltibia 26.4733
lfoot 18.8154 7.30785
ltoes -24.4734
242
root -0.446684 22.2458 7.59245 -177.032 50.4606 183.248
lowerback -8.7078 8.85497 2.8113
upperback -0.154257 11.6825 -2.54761
thorax 5.75269 5.88874 -2.52173
lowerneck 0.788522 2.92962 10.6819
upperneck 11.5901 4.7683 -5.94411
head 3.71529 2.75911 -3.39961
rclavicle 6.2642e-014 2.78299e-014
rhumerus 76.0202 16.281 -80.738
rradius 47.0571
rwrist 34.4985
rhand -60.1993 21.2564
rfingers 7.12502
rthumb -32.3415 -5.88043
lclavicle 6.2642e-014 2.78299e-014
lhumerus 51.3685 -12.9372 92.1998
lradius 63.6341
lwrist 62.8398
lhand -52.0238 -3.66823
lfingers 7.12502
lthumb -24.5303 24.7805
rfemur 541.722 -179.491 -533.478
rtibia 32.3993
rfoot 14.7005 8.76448
rtoes -20.4116
lfemur 349.711 0.273791 353.008
ltibia 26.6407
lfoot 18.3667 7.54266
ltoes -23.5523
243
root -0.423365 22.3124 7.53438 -177.419 50.4731 183.113
lowerback -8.58063 8.8609 2.6292
upperback -0.0897806 11.724 -2.69228
thorax 5.74819 5.90981 -2.5815
lowerneck 1.23835 2.80149 10.5897
upperneck 11.4709 4.63744 -5.76983
head 3.58844 2.70856 -3.34391
rclavicle 1.83975e-013 -4.77083e-015
rhumerus 76.6839 15.8818 -80.7488
rradius 45.8116
rwrist 34.941
rhand -59.64 19.1656
rfingers 7.12502
rthumb -31.8091 -8.07841
lclavicle 1.83975e-013 -4.77083e-015
lhumerus 51.4785 -12.6877 92.8509
lradius 63.0824
lwrist 63.2463
lhand -52.3515 -3.97603
lfingers 7.12502
lthumb -24.8444 24.4298
rfemur 541.92 -179.543 -533.434
rtibia 32.4474
rfoot 14.6511 9.19153
rtoes -20.4966
lfemur 350.103 -0.0822297 352.962
ltibia 26.8121
lfoot 17.845 7.91884
ltoes -22.3855
244
root -0.401972 22.3684 7.47697 -177.724 50.456 183.057
lowerback -8.43495 8.86298 2.52791
upperback -0.0361795 11.7524 -2.83573
thorax 5.73686 5.92687 -2.68781
lowerneck 1.61462 2.67723 10.5043
upperneck 11.4 4.50842 -5.62446
head 3.48963 2.65734 -3.29642
rclavicle -1.19892e-013 -1.59028e-014
rhumerus 77.1714 15.5202 -80.68
rradius 44.8982
rwrist 35.4843
rhand -59.0706 16.8466
rfingers 7.12502
rthumb -31.2666 -10.5037
lclavicle -1.19892e-013 -1.59028e-014
lhumerus 51.5555 -12.5409 93.2778
lradius 62.6011
lwrist 63.2099
lhand -52.3843 -4.177
lfingers 7.12502
lthumb -24.8758 24.2245
rfemur 542.081 -179.551 -533.358
rtibia 32.4936
rfoot 14.6437 9.60064
rtoes -20.2757
lfemur 350.443 -0.364726 352.98
ltibia 26.9755
lfoot 17.2447 8.19064
ltoes -21.1579
245
root -0.381266 22.417 7.41879 -177.86 50.4435 183.15
lowerback -8.33425 8.8753 2.53342
upperback 0.00653783 11.781 -2.95415
thorax 5.75533 5.94588 -2.8177
lowerneck 1.89833 2.57464 10.3984
upperneck 11.4354 4.40617 -5.48079
head 3.44015 2.61998 -3.24295
rclavicle 1.7749e-013 3.02153e-014
rhumerus 77.4717 15.2134 -80.6877
rradius 44.2781
rwrist 36.2187
rhand -58.6498 14.985
rfingers 7.12502
rthumb -30.8655 -12.442
lclavicle 1.7749e-013 3.02153e-014
lhumerus 51.5859 -12.4657 93.5312
lradius 62.3048
lwrist 62.971
lhand -52.4525 -4.31445
lfingers 7.12502
lthumb -24.9412 24.078
rfemur 542.156 -179.595 -533.171
rtibia 32.5538
rfoot 14.6276 9.97751
rtoes -19.883
lfemur 350.711 -0.301332 353.12
ltibia 27.1227
lfoot 16.5515 7.98467
ltoes -20.5671
